<?xml version="1.0" encoding="UTF-8" standalone="no"?>
<!-- Created with Inkscape (http://www.inkscape.org/) -->

<svg
   xmlns:dc="http://purl.org/dc/elements/1.1/"
   xmlns:cc="http://creativecommons.org/ns#"
   xmlns:rdf="http://www.w3.org/1999/02/22-rdf-syntax-ns#"
   xmlns:svg="http://www.w3.org/2000/svg"
   xmlns="http://www.w3.org/2000/svg"
   xmlns:sodipodi="http://sodipodi.sourceforge.net/DTD/sodipodi-0.dtd"
   xmlns:inkscape="http://www.inkscape.org/namespaces/inkscape"
   width="210mm"
   height="297mm"
   viewBox="0 0 210 297"
   version="1.1"
   id="svg8"
   inkscape:version="0.92.1 r15371"
   sodipodi:docname="Fruit.svg">
  <defs
     id="defs2" />
  <sodipodi:namedview
     id="base"
     pagecolor="#ffffff"
     bordercolor="#666666"
     borderopacity="1.0"
     inkscape:pageopacity="0.0"
     inkscape:pageshadow="2"
     inkscape:zoom="0.7"
     inkscape:cx="-273.6851"
     inkscape:cy="446.91297"
     inkscape:document-units="mm"
     inkscape:current-layer="layer1"
     showgrid="false"
     inkscape:window-width="1280"
     inkscape:window-height="701"
     inkscape:window-x="-4"
     inkscape:window-y="-4"
     inkscape:window-maximized="1" />
  <metadata
     id="metadata5">
    <rdf:RDF>
      <cc:Work
         rdf:about="">
        <dc:format>image/svg+xml</dc:format>
        <dc:type
           rdf:resource="http://purl.org/dc/dcmitype/StillImage" />
        <dc:title></dc:title>
      </cc:Work>
    </rdf:RDF>
  </metadata>
  <g
     inkscape:label="Camada 1"
     inkscape:groupmode="layer"
     id="layer1">
    <g
       id="g4515"
       inkscape:export-xdpi="96"
       inkscape:export-ydpi="96"
       transform="matrix(0.14923226,0,0,0.14923226,-74.297874,92.042427)">
      <path
         sodipodi:nodetypes="ccccccccccccc"
         inkscape:connector-curvature="0"
         id="path4505"
         d="m -88.13449,56.146991 -17.40363,-37.327561 -3.94811,1.840771 -5.80121,-12.442519 -6.69982,3.123728 -7.02838,-15.0745945 -19.22153,8.9618632 4.40668,9.4515303 8.33433,-3.885803 10.04056,21.535129 10.289,-4.797153 15.730209,33.738368 z"
         style="fill:#000000;stroke:#000000;stroke-width:4.19087744;stroke-linecap:butt;stroke-linejoin:miter;stroke-miterlimit:4;stroke-dasharray:none;stroke-opacity:1" />
      <path
         style="fill:#000000;stroke:#000000;stroke-width:4.19087744;stroke-linecap:butt;stroke-linejoin:miter;stroke-miterlimit:4;stroke-dasharray:none;stroke-opacity:1"
         d="m -99.436391,61.27075 16.310952,-37.8178 3.999962,1.7252 5.436985,-12.605932 6.787809,2.927607 6.587113,-15.2725754 19.473977,8.3991993 -4.130018,9.5756601 -8.443783,-3.641835 -9.410168,21.81796 -10.424134,-4.495968 -14.742595,34.181468 z"
         id="path4507"
         inkscape:connector-curvature="0"
         sodipodi:nodetypes="ccccccccccccc" />
      <g
         id="g4503">
        <path
           style="fill:#ff0000;fill-opacity:1;stroke:none;stroke-width:5;stroke-linecap:butt;stroke-linejoin:miter;stroke-miterlimit:4;stroke-dasharray:none;stroke-opacity:1"
           d="m -106.37341,60.065351 v 2.272212 h -16.3034 v 6.280753 h -15.10088 v 8.418608 h -8.15144 v 8.820134 h -8.28528 v 10.022644 h -6.81561 v 12.695348 h -6.54792 v 62.80805 h 6.54792 v 12.69535 h 6.81561 v 10.02264 h 8.28528 v 8.82014 h 8.15144 v 8.41912 h 15.10088 v 6.28076 h 16.3034 v 2.27169 h 38.08605 v -2.27169 h 16.303397 v -6.28076 h 15.100887 v -8.41912 h 8.15144 v -8.82014 h 8.285281 v -10.02264 h 6.815606 V 171.3831 h 6.5479186 V 108.57505 H -13.630749 V 95.879702 h -6.815606 V 85.857058 h -8.285281 v -8.820134 h -8.15144 V 68.618316 H -51.983963 V 62.337563 H -68.28736 v -2.272212 z"
           id="path4487"
           inkscape:connector-curvature="0" />
        <path
           style="fill:#d30000;fill-opacity:1;stroke:none;stroke-width:0.26458332px;stroke-linecap:butt;stroke-linejoin:miter;stroke-opacity:1"
           d="m -106.37341,62.337563 c 0,0 -77.73676,95.185277 38.08605,157.555237 h -38.08605 l -16.3034,-2.27169 v -6.28076 h -15.10088 v -8.41912 h -8.15144 v -8.82014 h -8.28528 v -10.02264 h -6.81561 V 171.3831 h -6.54792 v -62.80805 c 0,0 6.54792,0 6.54792,0 0,0 0,-12.695348 0,-12.695348 h 6.81561 V 85.857058 h 8.28528 v -8.820134 h 8.15144 v -8.418608 h 15.10088 v -6.280753 z"
           id="path4498"
           inkscape:connector-curvature="0"
           sodipodi:nodetypes="cc" />
        <path
           inkscape:connector-curvature="0"
           id="path4496"
           d="m -106.37341,60.065351 v 2.272212 h -16.3034 v 6.280753 h -15.10088 v 8.418608 h -8.15144 v 8.820134 h -8.28528 v 10.022644 h -6.81561 v 12.695348 h -6.54792 v 62.80805 h 6.54792 v 12.69535 h 6.81561 v 10.02264 h 8.28528 v 8.82014 h 8.15144 v 8.41912 h 15.10088 v 6.28076 h 16.3034 v 2.27169 h 38.08605 v -2.27169 h 16.303397 v -6.28076 h 15.100887 v -8.41912 h 8.15144 v -8.82014 h 8.285281 v -10.02264 h 6.815606 V 171.3831 h 6.5479186 V 108.57505 H -13.630749 V 95.879702 h -6.815606 V 85.857058 h -8.285281 v -8.820134 h -8.15144 V 68.618316 H -51.983963 V 62.337563 H -68.28736 v -2.272212 z"
           style="fill:none;fill-opacity:1;stroke:#800000;stroke-width:6;stroke-linecap:butt;stroke-linejoin:miter;stroke-miterlimit:4;stroke-dasharray:none;stroke-opacity:1" />
      </g>
    </g>
  </g>
</svg>
