<?xml version="1.0" encoding="UTF-8" standalone="no"?>
<!-- Created with Inkscape (http://www.inkscape.org/) -->

<svg
   xmlns:dc="http://purl.org/dc/elements/1.1/"
   xmlns:cc="http://creativecommons.org/ns#"
   xmlns:rdf="http://www.w3.org/1999/02/22-rdf-syntax-ns#"
   xmlns:svg="http://www.w3.org/2000/svg"
   xmlns="http://www.w3.org/2000/svg"
   xmlns:sodipodi="http://sodipodi.sourceforge.net/DTD/sodipodi-0.dtd"
   xmlns:inkscape="http://www.inkscape.org/namespaces/inkscape"
   width="448"
   height="448"
   viewBox="0 0 118.53333 118.53334"
   version="1.1"
   id="svg8"
   inkscape:version="0.92.1 r15371"
   sodipodi:docname="Rainha.svg">
  <defs
     id="defs2" />
  <sodipodi:namedview
     id="base"
     pagecolor="#ffffff"
     bordercolor="#666666"
     borderopacity="1.0"
     inkscape:pageopacity="0.0"
     inkscape:pageshadow="2"
     inkscape:zoom="0.1767767"
     inkscape:cx="-3459.09"
     inkscape:cy="116.50161"
     inkscape:document-units="mm"
     inkscape:current-layer="layer1"
     showgrid="false"
     inkscape:window-width="1280"
     inkscape:window-height="701"
     inkscape:window-x="-4"
     inkscape:window-y="-4"
     inkscape:window-maximized="1"
     units="px" />
  <metadata
     id="metadata5">
    <rdf:RDF>
      <cc:Work
         rdf:about="">
        <dc:format>image/svg+xml</dc:format>
        <dc:type
           rdf:resource="http://purl.org/dc/dcmitype/StillImage" />
        <dc:title />
      </cc:Work>
    </rdf:RDF>
  </metadata>
  <g
     inkscape:groupmode="layer"
     id="layer1"
     inkscape:label="Operador">
    <path
       transform="translate(0,-178.46666)"
       inkscape:export-ydpi="96"
       inkscape:export-xdpi="96"
       inkscape:export-filename="C:\4.0 MyProjects\Unity\Game JaajJ\Lost Nijulixo\Assets\Resources\Characters\Rainha\Inkscape\Foot\Rainha_Foot01.png"
       inkscape:connector-curvature="0"
       id="path4640"
       d="m -600.89993,430.67938 v -36.99419 h 24.64089 v 12.22189 h 12.48472 v 12.48472 h 12.22188 v 12.22188 z"
       style="display:inline;fill:#04ffdf;fill-opacity:1;stroke:none;stroke-width:0.37170652px;stroke-linecap:butt;stroke-linejoin:miter;stroke-opacity:1" />
    <path
       transform="translate(0,-178.46666)"
       inkscape:export-ydpi="96"
       inkscape:export-xdpi="96"
       inkscape:export-filename="C:\4.0 MyProjects\Unity\Game JaajJ\Lost Nijulixo\Assets\Resources\Characters\Rainha\Inkscape\Foot\Rainha_Foot01.png"
       inkscape:connector-curvature="0"
       id="path4642"
       d="m -583.39359,405.74763 c 0,0 -3.175,4.82865 0,12.43542 l -17.50634,12.49633 v -36.99419 z"
       style="display:inline;fill:#00c5ab;fill-opacity:1;stroke:none;stroke-width:0.26458332px;stroke-linecap:butt;stroke-linejoin:miter;stroke-opacity:1" />
    <path
       transform="translate(0,-178.46666)"
       inkscape:export-ydpi="96"
       inkscape:export-xdpi="96"
       inkscape:export-filename="C:\4.0 MyProjects\Unity\Game JaajJ\Lost Nijulixo\Assets\Resources\Characters\Rainha\Inkscape\Foot\Rainha_Foot01.png"
       inkscape:connector-curvature="0"
       id="path4644"
       d="m -600.89993,393.68519 v 36.99419 l 49.34749,-0.0657 v -12.22192 h -12.22188 v -12.48472 h -12.48472 v 12.3053 h -12.48748 v -12.35919 l 12.48748,0.0539 v -12.2219 z"
       style="display:inline;fill:#00b9a1;fill-opacity:1;stroke:none;stroke-width:0.37170652px;stroke-linecap:butt;stroke-linejoin:miter;stroke-opacity:1" />
    <path
       transform="translate(0,-178.46666)"
       inkscape:export-ydpi="96"
       inkscape:export-xdpi="96"
       inkscape:export-filename="C:\4.0 MyProjects\Unity\Game JaajJ\Lost Nijulixo\Assets\Resources\Characters\Rainha\Inkscape\Hand\Rainha_Hand01.png"
       inkscape:connector-curvature="0"
       id="path4652"
       d="m -594.08,350.01471 -12.28824,0.13136 v -36.86246 l 12.28824,-0.26242 v -12.41943 h 24.6401 v 12.41939 h 12.41916 v 37.05953 l -12.28759,-2.8e-4 v 12.35359 H -594.08 Z"
       style="display:inline;fill:#d99446;fill-opacity:1;stroke:none;stroke-width:0.37170652px;stroke-linecap:butt;stroke-linejoin:miter;stroke-opacity:1" />
    <path
       transform="translate(0,-178.46666)"
       inkscape:export-ydpi="96"
       inkscape:export-xdpi="96"
       inkscape:export-filename="C:\4.0 MyProjects\Unity\Game JaajJ\Lost Nijulixo\Assets\Resources\Characters\Rainha\Inkscape\Hand\Rainha_Hand01.png"
       inkscape:connector-curvature="0"
       id="path4654"
       d="m -585.01353,312.76473 c 0,0 -9.12812,15.08125 0.13229,37.30625 l -9.19876,12.36302 0,-12.41924 -12.28824,0.13131 v -36.86246 l 12.28824,-0.26236 0,-12.41948 z"
       style="display:inline;fill:#d68c38;fill-opacity:1;stroke:none;stroke-width:0.26458332px;stroke-linecap:butt;stroke-linejoin:miter;stroke-opacity:1" />
    <path
       inkscape:export-ydpi="96"
       inkscape:export-xdpi="96"
       inkscape:export-filename="C:\4.0 MyProjects\Unity\Game JaajJ\Lost Nijulixo\Assets\Resources\Characters\Rainha\Inkscape\Hand\Rainha_Hand01.png"
       sodipodi:nodetypes="ccccccccccccccccc"
       inkscape:connector-curvature="0"
       id="path4656"
       d="m -606.36824,350.14608 v -36.86246 l 12.28824,-0.26246 v -12.41939 h 24.6401 v 12.41939 h 12.41916 v 37.05954 l -12.28759,-3.3e-4 V 362.434 H -594.08 v -12.41933 l 24.77167,0.0658 -0.13157,-37.05922 H -594.08 v 36.99351 z"
       style="display:inline;fill:#d2842b;fill-opacity:1;stroke:none;stroke-width:0.37170652px;stroke-linecap:butt;stroke-linejoin:miter;stroke-opacity:1"
       transform="translate(0,-178.46666)" />
    <path
       style="display:inline;fill:#ff0000;fill-opacity:1;stroke:none;stroke-width:0.99999994px;stroke-linecap:butt;stroke-linejoin:miter;stroke-opacity:1"
       d="m -2295.0977,82.582031 v 47.683589 h -46.3613 v 187.69922 h 46.2676 l 0.248,93.13086 98.1719,-1.27929 89.084,1.65039 0.248,-93.13086 47.1856,-0.37305 V 130.26367 h -49.3262 V 82.580078 Z"
       id="path4626"
       transform="scale(0.26458333)"
       inkscape:connector-curvature="0"
       sodipodi:nodetypes="cccccccccccccc"
       inkscape:export-filename="C:\4.0 MyProjects\Unity\Game JaajJ\Lost Nijulixo\Assets\Resources\Characters\Rainha\Inkscape\Body\Rainha_Body01.png"
       inkscape:export-xdpi="96"
       inkscape:export-ydpi="96" />
    <path
       transform="translate(0,-178.46666)"
       style="display:inline;fill:#e10000;fill-opacity:1;stroke:none;stroke-width:0.26458332px;stroke-linecap:butt;stroke-linejoin:miter;stroke-opacity:1"
       d="m -590.96583,212.8053 c 0,0 -14.2875,15.875 1.32291,63.23542 l -17.56074,11.1951 -0.0657,-24.64094 -12.24187,-2e-4 v -49.66179 h 12.26658 V 200.3167 Z"
       id="path4638"
       inkscape:connector-curvature="0"
       inkscape:export-filename="C:\4.0 MyProjects\Unity\Game JaajJ\Lost Nijulixo\Assets\Resources\Characters\Rainha\Inkscape\Body\Rainha_Body01.png"
       inkscape:export-xdpi="96"
       inkscape:export-ydpi="96" />
    <path
       transform="translate(0,-178.46666)"
       style="display:inline;fill:#d10000;fill-opacity:1;stroke:none;stroke-width:0.37170652px;stroke-linecap:butt;stroke-linejoin:miter;stroke-opacity:1"
       d="m -607.24465,212.93289 h -12.79575 v 49.66179 l 12.77104,2e-4 0.0657,24.64094 h 49.4789 l 0.13135,-24.54277 12.48472,-3e-5 v -49.76069 h -13.05109 l 4e-5,-12.61563 h -49.08492 v 12.61612 l 49.08496,-4.9e-4 0.56636,49.76065 -12.419,-0.0983 v 12.6163 h -24.90374 l 6e-4,-12.6163 -12.35389,-2e-4 z"
       id="path4632"
       inkscape:connector-curvature="0"
       sodipodi:nodetypes="ccccccccccccccccccccc"
       inkscape:export-filename="C:\4.0 MyProjects\Unity\Game JaajJ\Lost Nijulixo\Assets\Resources\Characters\Rainha\Inkscape\Body\Rainha_Body01.png"
       inkscape:export-xdpi="96"
       inkscape:export-ydpi="96" />
    <g
       style="display:inline"
       transform="rotate(8.7558208,848.63712,-3107.8452)"
       id="g4601"
       inkscape:export-filename="C:\4.0 MyProjects\Unity\Game JaajJ\Lost Nijulixo\Assets\Resources\Characters\Rainha\Inkscape\Head\Rainha_Head01.png"
       inkscape:export-xdpi="291.35724"
       inkscape:export-ydpi="291.35724">
      <path
         style="fill:none;stroke:#000000;stroke-width:10;stroke-linecap:butt;stroke-linejoin:miter;stroke-miterlimit:4;stroke-dasharray:none;stroke-opacity:1"
         d="m -89.826038,103.85414 c 0,0 -9.657291,-50.799976 8.863542,-74.083306"
         id="path4597"
         inkscape:connector-curvature="0" />
      <circle
         style="opacity:1;vector-effect:none;fill:none;fill-opacity:1;stroke:#000000;stroke-width:8.47978592;stroke-linecap:round;stroke-linejoin:miter;stroke-miterlimit:4;stroke-dasharray:none;stroke-dashoffset:1;stroke-opacity:1;paint-order:stroke fill markers"
         id="circle4599"
         cx="-83.441551"
         cy="32.269531"
         r="7.1391239" />
    </g>
    <path
       inkscape:export-ydpi="291.35724"
       inkscape:export-xdpi="291.35724"
       inkscape:export-filename="C:\4.0 MyProjects\Unity\Game JaajJ\Lost Nijulixo\Assets\Resources\Characters\Rainha\Inkscape\Head\Rainha_Head01.png"
       sodipodi:nodetypes="ccccccccccccccccccccc"
       inkscape:connector-curvature="0"
       id="path4544"
       d="m -612.00854,179.2005 -0.063,-12.47813 H -624.683 v -12.61206 h -12.47873 v -49.64923 l 12.3459,-1.4e-4 -0.13266,-12.478723 h 13.27522 V 79.769005 h 49.25115 l -4e-5,11.947705 h 12.24625 l -10e-6,12.31278 12.31296,0.0332 v 50.08045 l -12.31297,3.8e-4 -0.16578,12.57827 -12.21321,5.9e-4 v 12.47813 z"
       style="display:inline;fill:#d99446;fill-opacity:1;stroke:none;stroke-width:0.37170652px;stroke-linecap:butt;stroke-linejoin:miter;stroke-opacity:1"
       transform="translate(0,-178.46666)" />
    <path
       inkscape:export-ydpi="291.35724"
       inkscape:export-xdpi="291.35724"
       inkscape:export-filename="C:\4.0 MyProjects\Unity\Game JaajJ\Lost Nijulixo\Assets\Resources\Characters\Rainha\Inkscape\Head\Rainha_Head01.png"
       sodipodi:nodetypes="cccccccccccccc"
       inkscape:connector-curvature="0"
       id="path4546"
       d="m -576.43465,91.308481 c 0,0 -16.3056,1.853227 -25.47698,10.500989 -7.87353,16.33176 -16.77473,45.82921 3.31813,69.27089 l -13.41504,8.12014 -0.0631,-12.47816 -12.61142,3e-5 v -12.61206 h -12.47873 v -49.64923 h 12.34605 l -0.13282,-12.478863 h 13.27523 V 79.769005 Z"
       style="display:inline;fill:#d68c38;fill-opacity:1;stroke:none;stroke-width:0.26458332px;stroke-linecap:butt;stroke-linejoin:miter;stroke-opacity:1"
       transform="translate(0,-178.46666)" />
    <path
       style="display:inline;fill:#d68c38;fill-opacity:1;stroke:none;stroke-width:0.26458332px;stroke-linecap:butt;stroke-linejoin:miter;stroke-opacity:1"
       d="m -591.15605,96.327166 c 0,0 -10.1315,10.243964 -19.44688,2.910421 l 7.99033,-3.217597 9.96247,0.187089 z"
       id="path4582"
       inkscape:connector-curvature="0"
       sodipodi:nodetypes="ccccc"
       inkscape:export-filename="C:\4.0 MyProjects\Unity\Game JaajJ\Lost Nijulixo\Assets\Resources\Characters\Rainha\Inkscape\Head\Rainha_Head01.png"
       inkscape:export-xdpi="291.35724"
       inkscape:export-ydpi="291.35724"
       transform="translate(0,-178.46666)" />
    <path
       inkscape:export-ydpi="291.35724"
       inkscape:export-xdpi="291.35724"
       inkscape:export-filename="C:\4.0 MyProjects\Unity\Game JaajJ\Lost Nijulixo\Assets\Resources\Characters\Rainha\Inkscape\Head\Rainha_Head01.png"
       sodipodi:nodetypes="ccccccccccccccccccccccccccccccccc"
       inkscape:connector-curvature="0"
       id="path4548"
       d="m -612.07157,166.72237 h -12.61147 v -12.61206 h -12.47873 v -49.64923 h 12.34605 l -0.13282,-12.478863 h 13.27523 V 79.769005 h 49.25114 l -4e-5,11.947705 h 12.24626 l -1e-5,12.31278 12.31294,0.0332 v 50.08045 l -12.31295,3.8e-4 -0.16578,12.57827 h -12.21323 v 12.47873 h -49.45356 l -0.0631,-12.47813 h 49.51664 l 0.0663,-12.57887 12.31267,-3.8e-4 -3e-5,-50.11359 -12.31264,-4e-5 0.0665,-12.31274 -49.25111,0.265464 v 12.478676 h -13.14258 l 0.13283,49.64938 h 12.34589 z"
       style="display:inline;fill:#d2842b;fill-opacity:1;stroke:none;stroke-width:0.37170652px;stroke-linecap:butt;stroke-linejoin:miter;stroke-opacity:1"
       transform="translate(0,-178.46666)" />
    <g
       style="display:inline"
       id="g4811"
       transform="translate(-510.37789,-178.46666)"
       inkscape:export-filename="C:\4.0 MyProjects\Unity\Game JaajJ\Lost Nijulixo\Assets\Resources\Characters\Rainha\Inkscape\Head\Rainha_Head01.png"
       inkscape:export-xdpi="291.35724"
       inkscape:export-ydpi="291.35724">
      <g
         transform="translate(0,1.7e-5)"
         id="g4802" />
      <path
         style="fill:#d0d3c3;fill-opacity:1;stroke:none;stroke-width:0.26458332px;stroke-linecap:butt;stroke-linejoin:miter;stroke-opacity:1"
         d="m -80.778161,96.327166 c 0,0 -10.131501,10.243964 -19.446879,2.910421 l 7.990326,-3.217597 9.962472,0.187089 z"
         id="path4804"
         inkscape:connector-curvature="0"
         sodipodi:nodetypes="ccccc" />
    </g>
    <rect
       inkscape:export-ydpi="291.35724"
       inkscape:export-xdpi="291.35724"
       inkscape:export-filename="C:\4.0 MyProjects\Unity\Game JaajJ\Lost Nijulixo\Assets\Resources\Characters\Rainha\Inkscape\Head\Rainha_Head01.png"
       y="130.65916"
       x="-600.13257"
       height="12.015369"
       width="12.67246"
       id="rect4550"
       style="display:inline;opacity:1;vector-effect:none;fill:#000000;fill-opacity:1;stroke:none;stroke-width:0.74341303;stroke-linecap:round;stroke-linejoin:miter;stroke-miterlimit:4;stroke-dasharray:none;stroke-dashoffset:1;stroke-opacity:1;paint-order:stroke fill markers"
       transform="translate(0,-178.46666)" />
    <g
       id="g4570"
       transform="translate(-510.84562,-185.66957)"
       style="display:inline;stroke:#000000;stroke-opacity:1"
       inkscape:export-filename="C:\4.0 MyProjects\Unity\Game JaajJ\Lost Nijulixo\Assets\Resources\Characters\Rainha\Inkscape\Head\Rainha_Head01.png"
       inkscape:export-xdpi="291.35724"
       inkscape:export-ydpi="291.35724">
      <path
         inkscape:connector-curvature="0"
         id="path4560"
         d="m -89.826038,103.85414 c 0,0 -9.657291,-50.799976 8.863542,-74.083306"
         style="fill:none;stroke:#000000;stroke-width:10;stroke-linecap:butt;stroke-linejoin:miter;stroke-miterlimit:4;stroke-dasharray:none;stroke-opacity:1" />
      <circle
         r="7.1391239"
         cy="32.269531"
         cx="-83.441551"
         id="path4564"
         style="opacity:1;vector-effect:none;fill:none;fill-opacity:1;stroke:#000000;stroke-width:8.47978592;stroke-linecap:round;stroke-linejoin:miter;stroke-miterlimit:4;stroke-dasharray:none;stroke-dashoffset:1;stroke-opacity:1;paint-order:stroke fill markers" />
    </g>
    <path
       style="display:inline;fill:none;stroke:#000000;stroke-width:2;stroke-linecap:butt;stroke-linejoin:miter;stroke-miterlimit:4;stroke-dasharray:none;stroke-opacity:1"
       d="m -610.60293,99.237586 c 0,0 8.92969,-4.894793 19.44688,-2.91042"
       id="path4580"
       inkscape:connector-curvature="0"
       sodipodi:nodetypes="cc"
       inkscape:export-filename="C:\4.0 MyProjects\Unity\Game JaajJ\Lost Nijulixo\Assets\Resources\Characters\Rainha\Inkscape\Head\Rainha_Head01.png"
       inkscape:export-xdpi="291.35724"
       inkscape:export-ydpi="291.35724"
       transform="translate(0,-178.46666)" />
    <path
       sodipodi:nodetypes="cc"
       style="display:inline;fill:none;stroke:#000000;stroke-width:5;stroke-linecap:round;stroke-linejoin:miter;stroke-miterlimit:4;stroke-dasharray:none;stroke-opacity:1"
       d="m -603.24277,124.13006 h 15.8372"
       id="path4588"
       inkscape:connector-curvature="0"
       inkscape:export-filename="C:\4.0 MyProjects\Unity\Game JaajJ\Lost Nijulixo\Assets\Resources\Characters\Rainha\Inkscape\Head\Rainha_Head01.png"
       inkscape:export-xdpi="291.35724"
       inkscape:export-ydpi="291.35724"
       transform="translate(0,-178.46666)" />
    <g
       id="g4942"
       transform="rotate(8.7558208,848.63712,-3107.8452)"
       style="display:inline"
       inkscape:export-filename="C:\4.0 MyProjects\Unity\Game JaajJ\Lost Nijulixo\Assets\Resources\Characters\Rainha\Inkscape\Head\Rainha_Head01.png"
       inkscape:export-xdpi="291.35724"
       inkscape:export-ydpi="291.35724">
      <path
         inkscape:connector-curvature="0"
         id="path4938"
         d="m -89.826038,103.85414 c 0,0 -9.657291,-50.799976 8.863542,-74.083306"
         style="fill:none;stroke:#000000;stroke-width:10;stroke-linecap:butt;stroke-linejoin:miter;stroke-miterlimit:4;stroke-dasharray:none;stroke-opacity:1" />
      <circle
         r="7.1391239"
         cy="32.269531"
         cx="-83.441551"
         id="circle4940"
         style="opacity:1;vector-effect:none;fill:none;fill-opacity:1;stroke:#000000;stroke-width:8.47978592;stroke-linecap:round;stroke-linejoin:miter;stroke-miterlimit:4;stroke-dasharray:none;stroke-dashoffset:1;stroke-opacity:1;paint-order:stroke fill markers" />
    </g>
    <path
       style="display:inline;fill:#d99446;fill-opacity:1;stroke:none;stroke-width:0.37170652px;stroke-linecap:butt;stroke-linejoin:miter;stroke-opacity:1"
       d="m -612.00854,179.2005 -0.063,-12.47813 H -624.683 v -12.61206 l -12.47873,0 0,-49.64923 12.3459,-1.4e-4 -0.13266,-12.478723 h 13.27522 V 79.769005 h 49.25115 l -4e-5,11.947705 h 12.24625 l -10e-6,12.31278 12.31296,0.0332 v 50.08045 l -12.31297,3.8e-4 -0.16578,12.57827 -12.21321,5.9e-4 v 12.47813 z"
       id="path4944"
       inkscape:connector-curvature="0"
       sodipodi:nodetypes="ccccccccccccccccccccc"
       inkscape:export-filename="C:\4.0 MyProjects\Unity\Game JaajJ\Lost Nijulixo\Assets\Resources\Characters\Rainha\Inkscape\Head\Rainha_Head01.png"
       inkscape:export-xdpi="291.35724"
       inkscape:export-ydpi="291.35724"
       transform="translate(0,-178.46666)" />
    <path
       style="display:inline;fill:#d68c38;fill-opacity:1;stroke:none;stroke-width:0.26458332px;stroke-linecap:butt;stroke-linejoin:miter;stroke-opacity:1"
       d="m -576.43465,91.308481 c 0,0 -16.3056,1.853227 -25.47698,10.500989 -7.87353,16.33176 -16.77473,45.82921 3.31813,69.27089 l -13.41504,8.12014 -0.0631,-12.47816 -12.61142,3e-5 v -12.61206 l -12.47873,0 0,-49.64923 h 12.34605 l -0.13282,-12.478863 h 13.27523 V 79.769005 Z"
       id="path4946"
       inkscape:connector-curvature="0"
       sodipodi:nodetypes="cccccccccccccc"
       inkscape:export-filename="C:\4.0 MyProjects\Unity\Game JaajJ\Lost Nijulixo\Assets\Resources\Characters\Rainha\Inkscape\Head\Rainha_Head01.png"
       inkscape:export-xdpi="291.35724"
       inkscape:export-ydpi="291.35724"
       transform="translate(0,-178.46666)" />
    <path
       sodipodi:nodetypes="ccccc"
       inkscape:connector-curvature="0"
       id="path4948"
       d="m -591.15605,96.327166 c 0,0 -10.1315,10.243964 -19.44688,2.910421 l 7.99033,-3.217597 9.96247,0.187089 z"
       style="display:inline;fill:#d68c38;fill-opacity:1;stroke:none;stroke-width:0.26458332px;stroke-linecap:butt;stroke-linejoin:miter;stroke-opacity:1"
       inkscape:export-filename="C:\4.0 MyProjects\Unity\Game JaajJ\Lost Nijulixo\Assets\Resources\Characters\Rainha\Inkscape\Head\Rainha_Head01.png"
       inkscape:export-xdpi="291.35724"
       inkscape:export-ydpi="291.35724"
       transform="translate(0,-178.46666)" />
    <path
       style="display:inline;fill:#d2842b;fill-opacity:1;stroke:none;stroke-width:0.37170652px;stroke-linecap:butt;stroke-linejoin:miter;stroke-opacity:1"
       d="m -612.07157,166.72237 h -12.61147 v -12.61206 l -12.47873,0 v -49.64923 h 12.34605 l -0.13282,-12.478863 h 13.27523 V 79.769005 h 49.25114 l -4e-5,11.947705 h 12.24626 l -1e-5,12.31278 12.31294,0.0332 v 50.08045 l -12.31295,3.8e-4 -0.16578,12.57827 h -12.21323 v 12.47873 h -49.45356 l -0.0631,-12.47813 h 49.51664 l 0.0663,-12.57887 12.31267,-3.8e-4 -3e-5,-50.11359 -12.31264,-4e-5 0.0665,-12.31274 -49.25111,0.265464 v 12.478676 h -13.14258 l 0.13283,49.64938 h 12.34589 z"
       id="path4950"
       inkscape:connector-curvature="0"
       sodipodi:nodetypes="ccccccccccccccccccccccccccccccccc"
       inkscape:export-filename="C:\4.0 MyProjects\Unity\Game JaajJ\Lost Nijulixo\Assets\Resources\Characters\Rainha\Inkscape\Head\Rainha_Head01.png"
       inkscape:export-xdpi="291.35724"
       inkscape:export-ydpi="291.35724"
       transform="translate(0,-178.46666)" />
    <path
       inkscape:connector-curvature="0"
       id="path4586"
       d="m -674.01668,-55.451358 c 0.0697,1.665211 3.77831,0.595546 5.67918,0.642723 3.38989,0.08414 10.15802,1.306289 10.15802,-0.642723 0,0 -5.22179,-1.896333 -7.90907,-1.89708 -2.6935,-7.46e-4 -8.00117,0.152313 -7.92813,1.89708 z"
       style="display:inline;fill:#000000;fill-opacity:1;stroke:none;stroke-width:3.30625772;stroke-linecap:round;stroke-linejoin:miter;stroke-miterlimit:4;stroke-dasharray:none;stroke-opacity:1"
       sodipodi:nodetypes="sssss"
       inkscape:export-filename="C:\4.0 MyProjects\Unity\Game JaajJ\Lost Nijulixo\Assets\Resources\Characters\Rainha\Inkscape\EyesBrow\Suku_RightEyesBrow.png"
       inkscape:export-xdpi="291.35724"
       inkscape:export-ydpi="291.35724" />
    <g
       id="g4633"
       inkscape:export-filename="C:\4.0 MyProjects\Unity\Game JaajJ\Lost Nijulixo\Assets\Resources\Characters\Rainha\Inkscape\Head\Rainha_Head01.png"
       inkscape:export-xdpi="291"
       inkscape:export-ydpi="291">
      <rect
         transform="translate(0,-178.46666)"
         y="130.65916"
         x="-562.56366"
         height="12.015369"
         width="12.67246"
         id="rect4552"
         style="display:inline;opacity:1;vector-effect:none;fill:#000000;fill-opacity:1;stroke:none;stroke-width:0.74341303;stroke-linecap:round;stroke-linejoin:miter;stroke-miterlimit:4;stroke-dasharray:none;stroke-dashoffset:1;stroke-opacity:1;paint-order:stroke fill markers"
         inkscape:export-filename="C:\4.0 MyProjects\Unity\Game JaajJ\Lost Nijulixo\Assets\Resources\Characters\Suku\Inkscape\Head\Suku_Head01.png"
         inkscape:export-xdpi="291.35724"
         inkscape:export-ydpi="291.35724" />
      <rect
         transform="translate(0,-178.46666)"
         inkscape:export-ydpi="291.35724"
         inkscape:export-xdpi="291.35724"
         inkscape:export-filename="C:\4.0 MyProjects\Unity\Game JaajJ\Lost Nijulixo\Assets\Resources\Characters\Suku\Inkscape\Head\Suku_Head01.png"
         style="display:inline;opacity:1;vector-effect:none;fill:#000000;fill-opacity:1;stroke:none;stroke-width:0.74341303;stroke-linecap:round;stroke-linejoin:miter;stroke-miterlimit:4;stroke-dasharray:none;stroke-dashoffset:1;stroke-opacity:1;paint-order:stroke fill markers"
         id="rect4966"
         width="12.67246"
         height="12.015369"
         x="-562.56366"
         y="130.65916" />
      <path
         inkscape:connector-curvature="0"
         id="path4554"
         d="m -562.4683,-45.746208 c 0,0 -0.41296,-3.768004 1.28209,-5.815129 0,0 -0.51882,3.085182 0.69246,4.209969 z"
         style="fill:#000000;fill-opacity:1;stroke:none;stroke-width:0.26458332px;stroke-linecap:butt;stroke-linejoin:miter;stroke-opacity:1" />
      <path
         sodipodi:nodetypes="cccc"
         style="fill:#000000;fill-opacity:1;stroke:none;stroke-width:0.33268228px;stroke-linecap:butt;stroke-linejoin:miter;stroke-opacity:1"
         d="m -559.90559,-45.581952 c 0,0 0.0352,-4.76606 2.45131,-7.074807 0,0 -0.86747,4.041674 0.48079,5.623456 z"
         id="path4615"
         inkscape:connector-curvature="0" />
      <path
         inkscape:connector-curvature="0"
         id="path4623"
         d="m -556.2014,-45.581952 c 0,0 0.0352,-4.76606 2.45131,-7.074807 0,0 -0.86747,4.041674 0.48079,5.623456 z"
         style="fill:#000000;fill-opacity:1;stroke:none;stroke-width:0.33268228px;stroke-linecap:butt;stroke-linejoin:miter;stroke-opacity:1"
         sodipodi:nodetypes="cccc" />
      <path
         style="fill:#000000;fill-opacity:1;stroke:none;stroke-width:0.26458332px;stroke-linecap:butt;stroke-linejoin:miter;stroke-opacity:1"
         d="m -552.37119,-45.955846 c 0,0 0.24209,-3.782827 2.26435,-5.507467 0,0 -1.04236,2.949745 -0.0429,4.266322 z"
         id="path4625"
         inkscape:connector-curvature="0" />
    </g>
    <g
       id="g4647"
       transform="matrix(-1,0,0,1,-1150.0238,0)"
       inkscape:export-filename="C:\4.0 MyProjects\Unity\Game JaajJ\Lost Nijulixo\Assets\Resources\Characters\Rainha\Inkscape\Head\Rainha_Head01.png"
       inkscape:export-xdpi="291"
       inkscape:export-ydpi="291">
      <rect
         inkscape:export-ydpi="291.35724"
         inkscape:export-xdpi="291.35724"
         inkscape:export-filename="C:\4.0 MyProjects\Unity\Game JaajJ\Lost Nijulixo\Assets\Resources\Characters\Suku\Inkscape\Head\Suku_Head01.png"
         style="display:inline;opacity:1;vector-effect:none;fill:#000000;fill-opacity:1;stroke:none;stroke-width:0.74341303;stroke-linecap:round;stroke-linejoin:miter;stroke-miterlimit:4;stroke-dasharray:none;stroke-dashoffset:1;stroke-opacity:1;paint-order:stroke fill markers"
         id="rect4635"
         width="12.67246"
         height="12.015369"
         x="-562.56366"
         y="130.65916"
         transform="translate(0,-178.46666)" />
      <rect
         y="130.65916"
         x="-562.56366"
         height="12.015369"
         width="12.67246"
         id="rect4637"
         style="display:inline;opacity:1;vector-effect:none;fill:#000000;fill-opacity:1;stroke:none;stroke-width:0.74341303;stroke-linecap:round;stroke-linejoin:miter;stroke-miterlimit:4;stroke-dasharray:none;stroke-dashoffset:1;stroke-opacity:1;paint-order:stroke fill markers"
         inkscape:export-filename="C:\4.0 MyProjects\Unity\Game JaajJ\Lost Nijulixo\Assets\Resources\Characters\Suku\Inkscape\Head\Suku_Head01.png"
         inkscape:export-xdpi="291.35724"
         inkscape:export-ydpi="291.35724"
         transform="translate(0,-178.46666)" />
      <path
         style="fill:#000000;fill-opacity:1;stroke:none;stroke-width:0.26458332px;stroke-linecap:butt;stroke-linejoin:miter;stroke-opacity:1"
         d="m -562.4683,-45.746208 c 0,0 -0.41296,-3.768004 1.28209,-5.815129 0,0 -0.51882,3.085182 0.69246,4.209969 z"
         id="path4639"
         inkscape:connector-curvature="0" />
      <path
         inkscape:connector-curvature="0"
         id="path4641"
         d="m -559.90559,-45.581952 c 0,0 0.0352,-4.76606 2.45131,-7.074807 0,0 -0.86747,4.041674 0.48079,5.623456 z"
         style="fill:#000000;fill-opacity:1;stroke:none;stroke-width:0.33268228px;stroke-linecap:butt;stroke-linejoin:miter;stroke-opacity:1"
         sodipodi:nodetypes="cccc" />
      <path
         sodipodi:nodetypes="cccc"
         style="fill:#000000;fill-opacity:1;stroke:none;stroke-width:0.33268228px;stroke-linecap:butt;stroke-linejoin:miter;stroke-opacity:1"
         d="m -556.2014,-45.581952 c 0,0 0.0352,-4.76606 2.45131,-7.074807 0,0 -0.86747,4.041674 0.48079,5.623456 z"
         id="path4643"
         inkscape:connector-curvature="0" />
      <path
         inkscape:connector-curvature="0"
         id="path4645"
         d="m -552.37119,-45.955846 c 0,0 0.24209,-3.782827 2.26435,-5.507467 0,0 -1.04236,2.949745 -0.0429,4.266322 z"
         style="fill:#000000;fill-opacity:1;stroke:none;stroke-width:0.26458332px;stroke-linecap:butt;stroke-linejoin:miter;stroke-opacity:1" />
    </g>
    <path
       style="fill:#ff6b00;fill-opacity:1;stroke:none;stroke-width:0.26458332px;stroke-linecap:butt;stroke-linejoin:miter;stroke-opacity:1"
       d="m -645.05416,-83.343749 h 13.22917 v -14.552083 h 12.96458 v -15.345838 h 65.88125 v 15.345838 h 12.96458 v 15.08125 h 11.90625 v 49.057739 h -10.05223 v -25.069882 h -27.22139 v -5.799748 h -39.4757 v 6.735193 h -7.29647 V 0.9260416 L -583.13475,0.73385 v 16.95869 h -50.01317 l -0.17118,-10.715625 -11.59803,0.033074 z"
       id="path4651"
       inkscape:connector-curvature="0"
       sodipodi:nodetypes="ccccccccccccccccccccccccc"
       inkscape:export-filename="C:\4.0 MyProjects\Unity\Game JaajJ\Lost Nijulixo\Assets\Resources\Characters\Rainha\Inkscape\Head\Rainha_Head01.png"
       inkscape:export-xdpi="291"
       inkscape:export-ydpi="291" />
    <path
       style="fill:#f26600;fill-opacity:1;stroke:none;stroke-width:0.26458332px;stroke-linecap:butt;stroke-linejoin:miter;stroke-opacity:1"
       d="M -617.27291,-60.721874 V 1.9843749 c 0,0 0.92603,10.1864581 3.0427,12.1708331 l -18.91771,3.537332 -0.17118,-10.715625 -11.59803,0.033074 -0.13703,-90.353738 23.01874,-10e-7 19.42282,0.89708 c -3.57201,1.147876 -1.21038,2.938958 -3.30529,4.284145 -2.93451,1.884306 -7.49768,1.746392 -8.34981,3.118089 -2.0465,3.294283 -2.65168,7.742064 -3.00521,14.322562 z"
       id="path4657"
       inkscape:connector-curvature="0"
       sodipodi:nodetypes="cccccccccssc"
       inkscape:export-filename="C:\4.0 MyProjects\Unity\Game JaajJ\Lost Nijulixo\Assets\Resources\Characters\Rainha\Inkscape\Head\Rainha_Head01.png"
       inkscape:export-xdpi="291"
       inkscape:export-ydpi="291" />
    <path
       sodipodi:nodetypes="cccccccccccccccccccccccccccccccccccccccccccccccccccc"
       inkscape:connector-curvature="0"
       id="path4653"
       d="m -583.13475,17.69254 -2.5e-4,-17.48785667 -28.48995,0.1921916 -0.52917,-58.28815493 h 7.29647 v -6.735193 h 39.4757 v 5.799748 h 26.69222 v 25.069882 h 10.5814 v -49.057739 h -11.90625 v -15.08125 h -12.96458 v -15.345838 h -65.88125 v 15.345838 h -12.96458 v 14.552083 h -13.22917 l 0.13703,90.353738 11.59803,-0.033074 0.17118,10.715625 44.96178,0.280633 1.4e-4,-6.454559 h -39.12231 V 0.57392732 h -10.28988 V -75.75825 h 15.99609 v -13.096207 h 16.65089 v -16.276713 h 41.44014 v 16.183169 h 17.39924 v 14.873549 h 13.00267 v 33.863049 h -1.55816 v -25.724692 h -21.45375 v -7.015825 h -54.25571 v 8.044813 h -9.72861 V 6.9349421 l 31.91939,0.1403165 v 4.4433554 l -1.4e-4,6.454559 z"
       style="fill:#e66100;fill-opacity:1;stroke:none;stroke-width:0.26458332px;stroke-linecap:butt;stroke-linejoin:miter;stroke-opacity:1"
       inkscape:export-filename="C:\4.0 MyProjects\Unity\Game JaajJ\Lost Nijulixo\Assets\Resources\Characters\Rainha\Inkscape\Head\Rainha_Head01.png"
       inkscape:export-xdpi="291"
       inkscape:export-ydpi="291" />
    <path
       sodipodi:nodetypes="cccccccccc"
       inkscape:connector-curvature="0"
       id="path4659"
       d="m -628.25283,-84.931249 h 84.4018 v -17.991671 l -7.40835,-15.875 -13.09687,21.166667 -16.80104,-21.166667 -16.93333,21.166667 -18.12396,-21.166667 -12.03825,15.875 z"
       style="fill:#ffff00;fill-opacity:1;stroke:none;stroke-width:0.26458332px;stroke-linecap:butt;stroke-linejoin:miter;stroke-opacity:1"
       inkscape:export-filename="C:\4.0 MyProjects\Unity\Game JaajJ\Lost Nijulixo\Assets\Resources\Characters\Rainha\Inkscape\Head\Rainha_Head01.png"
       inkscape:export-xdpi="291"
       inkscape:export-ydpi="291" />
    <path
       style="fill:#e8e800;stroke:none;stroke-width:0.26458332px;stroke-linecap:butt;stroke-linejoin:miter;stroke-opacity:1;fill-opacity:1"
       d="m -608.01249,-107.68542 c 0,0 -4.73112,16.59144 -3.66078,23.84681 l -20.28373,2.611528 0,-21.695838 15.74242,-21.16667 z"
       id="path4661"
       inkscape:connector-curvature="0"
       sodipodi:nodetypes="cc"
       inkscape:export-filename="C:\4.0 MyProjects\Unity\Game JaajJ\Lost Nijulixo\Assets\Resources\Characters\Rainha\Inkscape\Head\Rainha_Head01.png"
       inkscape:export-xdpi="291"
       inkscape:export-ydpi="291" />
    <path
       style="fill:#c7c700;fill-opacity:1;stroke:none;stroke-width:0.99999994px;stroke-linecap:butt;stroke-linejoin:miter;stroke-opacity:1"
       d="m -2329,-469 -59.498,80 v 82 h 346.998 v -82 l -42,-80 -49.5,80 -63.5,-80 -64,80 z m 0,20 68.5,80 64,-80 63.5,80 49.5,-80 28,60 v 68 h -318.998 v -68 z"
       id="path4655"
       transform="scale(0.26458333)"
       inkscape:connector-curvature="0"
       sodipodi:nodetypes="cccccccccccccccccccc"
       inkscape:export-filename="C:\4.0 MyProjects\Unity\Game JaajJ\Lost Nijulixo\Assets\Resources\Characters\Rainha\Inkscape\Head\Rainha_Head01.png"
       inkscape:export-xdpi="291"
       inkscape:export-ydpi="291" />
    <g
       id="g4680"
       transform="matrix(1.6227833,0,0,1.6227833,361.96836,62.506107)"
       style="fill:#5fbcd3"
       inkscape:export-filename="C:\4.0 MyProjects\Unity\Game JaajJ\Lost Nijulixo\Assets\Resources\Characters\Rainha\Inkscape\Head\Rainha_Head01.png"
       inkscape:export-xdpi="291"
       inkscape:export-ydpi="291">
      <path
         transform="rotate(30,-580.91035,-98.863702)"
         inkscape:transform-center-y="-1.6476756"
         inkscape:transform-center-x="-5.3630594e-006"
         d="m -574.31961,-98.863701 -9.88609,5.707738 v -11.415477 z"
         inkscape:randomized="0"
         inkscape:rounded="0"
         inkscape:flatsided="true"
         sodipodi:arg2="1.0471976"
         sodipodi:arg1="0"
         sodipodi:r2="3.2953639"
         sodipodi:r1="6.5907278"
         sodipodi:cy="-98.863701"
         sodipodi:cx="-580.91034"
         sodipodi:sides="3"
         id="path4674"
         style="opacity:1;vector-effect:none;fill:#5fbcd3;fill-opacity:1;stroke:none;stroke-width:3;stroke-linecap:round;stroke-linejoin:miter;stroke-miterlimit:4;stroke-dasharray:none;stroke-dashoffset:1;stroke-opacity:1;paint-order:stroke fill markers"
         sodipodi:type="star" />
      <path
         sodipodi:type="star"
         style="opacity:1;vector-effect:none;fill:#5fbcd3;fill-opacity:1;stroke:none;stroke-width:3;stroke-linecap:round;stroke-linejoin:miter;stroke-miterlimit:4;stroke-dasharray:none;stroke-dashoffset:1;stroke-opacity:1;paint-order:stroke fill markers"
         id="path4676"
         sodipodi:sides="3"
         sodipodi:cx="-580.91034"
         sodipodi:cy="-98.863701"
         sodipodi:r1="6.5907278"
         sodipodi:r2="3.2953639"
         sodipodi:arg1="0"
         sodipodi:arg2="1.0471976"
         inkscape:flatsided="true"
         inkscape:rounded="0"
         inkscape:randomized="0"
         d="m -574.31961,-98.863701 -9.88609,5.707738 v -11.415477 z"
         inkscape:transform-center-x="-8.1339339e-006"
         inkscape:transform-center-y="1.6476799"
         transform="matrix(0.8660254,-0.5,-0.5,-0.8660254,-127.25908,-474.93735)" />
    </g>
    <g
       transform="matrix(0.79092395,0,0,0.79092395,71.556737,-119.9788)"
       id="g4720"
       inkscape:export-filename="C:\4.0 MyProjects\Unity\Game JaajJ\Lost Nijulixo\Assets\Resources\Characters\Rainha\Inkscape\Throne\Throne02.png"
       inkscape:export-xdpi="96"
       inkscape:export-ydpi="96">
      <path
         sodipodi:nodetypes="ccccc"
         inkscape:connector-curvature="0"
         id="path4714"
         d="m -1294.6536,39.207749 27.6891,-20.953946 206.1717,-1.122523 -28.8116,22.076465 z"
         style="fill:#cccc00;fill-opacity:1;stroke:none;stroke-width:0.26458332px;stroke-linecap:butt;stroke-linejoin:miter;stroke-opacity:1" />
      <path
         style="fill:#fbfb00;fill-opacity:1;stroke:none;stroke-width:0.26458332px;stroke-linecap:butt;stroke-linejoin:miter;stroke-opacity:1"
         d="m -1294.6536,39.207749 v 64.289731 h 205.4234 l -0.3742,-64.289736 z"
         id="path4716"
         inkscape:connector-curvature="0"
         sodipodi:nodetypes="ccccc" />
      <path
         style="fill:#ffff14;fill-opacity:1;stroke:none;stroke-width:0.26458332px;stroke-linecap:butt;stroke-linejoin:miter;stroke-opacity:1"
         d="m -1060.7928,17.13128 v 63.193795 l -28.4374,23.172405 -0.3742,-64.289736 z"
         id="path4718"
         inkscape:connector-curvature="0"
         sodipodi:nodetypes="ccccc" />
    </g>
    <g
       id="g4733"
       transform="matrix(0.79092395,0,0,0.79092395,-374.01853,43.892363)"
       inkscape:export-filename="C:\4.0 MyProjects\Unity\Game JaajJ\Lost Nijulixo\Assets\Resources\Characters\Rainha\Inkscape\Throne\Throne01.png"
       inkscape:export-xdpi="107.06182"
       inkscape:export-ydpi="107.06182">
      <rect
         ry="0.77721351"
         y="39.207745"
         x="-992.3183"
         height="293.35501"
         width="247.3175"
         id="rect4682"
         style="opacity:1;vector-effect:none;fill:#fbfb00;fill-opacity:1;stroke:none;stroke-width:2.75455809;stroke-linecap:round;stroke-linejoin:miter;stroke-miterlimit:4;stroke-dasharray:none;stroke-dashoffset:1;stroke-opacity:1;paint-order:stroke fill markers" />
      <rect
         style="opacity:1;vector-effect:none;fill:#ffff00;fill-opacity:1;stroke:none;stroke-width:1.64595962;stroke-linecap:round;stroke-linejoin:miter;stroke-miterlimit:4;stroke-dasharray:none;stroke-dashoffset:1;stroke-opacity:1;paint-order:stroke fill markers"
         id="rect4684"
         width="88.305832"
         height="293.35501"
         x="-992.3183"
         y="-254.14726"
         ry="0.77721351" />
      <g
         id="g4703">
        <path
           style="fill:#cccc00;fill-opacity:1;stroke:none;stroke-width:0.26458332px;stroke-linecap:butt;stroke-linejoin:miter;stroke-opacity:1"
           d="m -904.01245,39.207749 27.68912,-20.953946 206.17171,-1.122523 -28.81167,22.076465 z"
           id="path4688"
           inkscape:connector-curvature="0"
           sodipodi:nodetypes="ccccc" />
        <path
           sodipodi:nodetypes="cccccccc"
           style="fill:#ffff14;fill-opacity:1;stroke:none;stroke-width:0.26458332px;stroke-linecap:butt;stroke-linejoin:miter;stroke-opacity:1"
           d="m -643.16409,-5.093724 -0.52919,265.645754 -101.30751,72.01073 -0.39159,-255.365942 28.4374,-25.818238 -3.25588,-12.621509 21.24758,0.450673 z"
           id="path4690"
           inkscape:connector-curvature="0" />
        <path
           sodipodi:nodetypes="ccccc"
           style="fill:#ffff14;fill-opacity:1;stroke:none;stroke-width:0.26458332px;stroke-linecap:butt;stroke-linejoin:miter;stroke-opacity:1"
           d="M -851.98166,18.253803 V -297.40143 l -52.03079,43.25417 V 39.207749 Z"
           id="path4692"
           inkscape:connector-curvature="0" />
      </g>
      <path
         sodipodi:nodetypes="ccccc"
         inkscape:connector-curvature="0"
         id="path4694"
         d="m -992.3183,-254.14726 51.79271,-42.76342 88.54393,-0.49075 -52.03079,43.25417 z"
         style="fill:#cccc00;fill-opacity:1;stroke:none;stroke-width:0.26458332px;stroke-linecap:butt;stroke-linejoin:miter;stroke-opacity:1" />
      <g
         transform="translate(343.83782,-40.588162)"
         id="g4712">
        <path
           sodipodi:nodetypes="ccccc"
           inkscape:connector-curvature="0"
           id="path4698"
           d="m -1294.6536,39.207749 27.6891,-20.953946 206.1717,-1.122523 -28.8116,22.076465 z"
           style="fill:#cccc00;fill-opacity:1;stroke:none;stroke-width:0.26458332px;stroke-linecap:butt;stroke-linejoin:miter;stroke-opacity:1" />
        <path
           style="fill:#fbfb00;fill-opacity:1;stroke:none;stroke-width:0.26458332px;stroke-linecap:butt;stroke-linejoin:miter;stroke-opacity:1"
           d="m -1294.6536,39.207749 v 78.577231 h 205.4234 l -0.3742,-78.577236 z"
           id="path4705"
           inkscape:connector-curvature="0"
           sodipodi:nodetypes="ccccc" />
        <path
           style="fill:#ffff14;fill-opacity:1;stroke:none;stroke-width:0.26458332px;stroke-linecap:butt;stroke-linejoin:miter;stroke-opacity:1"
           d="m -1060.7928,17.13128 v 74.835462 l -28.4374,25.818238 -0.3742,-78.577236 z"
           id="path4707"
           inkscape:connector-curvature="0" />
      </g>
    </g>
    <g
       id="g5041"
       inkscape:export-filename="C:\4.0 MyProjects\Unity\Game JaajJ\Lost Nijulixo\Assets\Resources\Characters\Rainha\Inkscape\Head\Rainha_Head01.png"
       inkscape:export-xdpi="291.35724"
       inkscape:export-ydpi="291.35724">
      <g
         inkscape:export-ydpi="57.457481"
         inkscape:export-xdpi="57.457481"
         inkscape:export-filename="C:\4.0 MyProjects\Unity\Game JaajJ\Lost Nijulixo\Assets\Resources\Characters\Tori\Inkscape\Oprator\Hand\Head01.png"
         id="g4972"
         transform="translate(-510.84562,-185.66957)"
         style="display:inline;stroke:#000000;stroke-opacity:1">
        <path
           inkscape:connector-curvature="0"
           id="path4968"
           d="m -89.826038,103.85414 c 0,0 -9.657291,-50.799976 8.863542,-74.083306"
           style="fill:none;stroke:#000000;stroke-width:10;stroke-linecap:butt;stroke-linejoin:miter;stroke-miterlimit:4;stroke-dasharray:none;stroke-opacity:1" />
        <circle
           r="7.1391239"
           cy="32.269531"
           cx="-83.441551"
           id="circle4970"
           style="opacity:1;vector-effect:none;fill:none;fill-opacity:1;stroke:#000000;stroke-width:8.47978592;stroke-linecap:round;stroke-linejoin:miter;stroke-miterlimit:4;stroke-dasharray:none;stroke-dashoffset:1;stroke-opacity:1;paint-order:stroke fill markers" />
      </g>
      <path
         transform="translate(0,-178.46666)"
         inkscape:export-ydpi="57.457481"
         inkscape:export-xdpi="57.457481"
         inkscape:export-filename="C:\4.0 MyProjects\Unity\Game JaajJ\Lost Nijulixo\Assets\Resources\Characters\Tori\Inkscape\Oprator\Hand\Head01.png"
         style="display:inline;fill:none;stroke:#000000;stroke-width:2;stroke-linecap:butt;stroke-linejoin:miter;stroke-miterlimit:4;stroke-dasharray:none;stroke-opacity:1"
         d="m -610.60293,99.237586 c 0,0 8.92969,-4.894793 19.44688,-2.91042"
         id="path4974"
         inkscape:connector-curvature="0"
         sodipodi:nodetypes="cc" />
    </g>
    <path
       inkscape:export-ydpi="291.35724"
       inkscape:export-xdpi="291.35724"
       inkscape:export-filename="C:\4.0 MyProjects\Unity\Game JaajJ\Lost Nijulixo\Assets\Resources\Characters\Rainha\Inkscape\EyesBrow\Suku_LeftEyesBrow01.png"
       sodipodi:nodetypes="sssss"
       style="display:inline;fill:#000000;fill-opacity:1;stroke:none;stroke-width:3.30625772;stroke-linecap:round;stroke-linejoin:miter;stroke-miterlimit:4;stroke-dasharray:none;stroke-opacity:1"
       d="m -678.81773,-55.451358 c -0.0697,1.665211 -3.77831,0.595546 -5.67918,0.642723 -3.38989,0.08414 -10.15802,1.306289 -10.15802,-0.642723 0,0 5.22179,-1.896333 7.90907,-1.89708 2.6935,-7.46e-4 8.00117,0.152313 7.92813,1.89708 z"
       id="path4737"
       inkscape:connector-curvature="0" />
  </g>
  <g
     inkscape:groupmode="layer"
     id="layer6"
     inkscape:label="Base" />
  <g
     inkscape:groupmode="layer"
     id="layer7"
     inkscape:label="Junta" />
</svg>
